<svg width="1920" height="1080" viewBox="0 0 1920 1080" fill="none" xmlns="http://www.w3.org/2000/svg">
<path d="M1920 0H2.86102e-06V1080H1920V0Z" fill="#0D8BFF"/>
<path d="M1148.4 540L646.8 1080H1675.2L1148.4 540Z" fill="url(#paint0_linear_2_2)"/>
<path d="M1148.4 540L1047.48 1080H1675.2L1148.4 540Z" fill="#1B9207"/>
<path d="M-72 1080L477.6 794.4L979.2 1080H-72Z" fill="#2BC010"/>
<path d="M404.4 1080L477.6 794.4L979.2 1080H404.4Z" fill="#189009"/>
<path d="M1443.6 655.2L1862.4 1080H1051.2L1443.6 655.2Z" fill="url(#paint1_linear_2_2)"/>
<path d="M1443.6 655.2L1862.4 1080H1394.4L1443.6 655.2Z" fill="#158E0B"/>
<path d="M769.2 834L1063.2 1080H440.4L769.2 834Z" fill="#2BC00F"/>
<path d="M704.4 1080L769.2 834L1063.2 1080H704.4Z" fill="#1B9207"/>
<path d="M2052 1080L1681.2 758.4L1315.2 1080H2052Z" fill="url(#paint2_linear_2_2)"/>
<path d="M2052 1080L1681.2 758.4L1638 1080H2052Z" fill="#0C8A0E"/>
<path d="M1452 1080L1165.2 824.4L870 1080H1452Z" fill="#23C605"/>
<path d="M1131.6 1080H1452L1165.2 824.4L1131.6 1080Z" fill="#01880F"/>
<defs>
<linearGradient id="paint0_linear_2_2" x1="990" y1="0" x2="990" y2="1080" gradientUnits="userSpaceOnUse">
<stop stop-color="#2BC90E"/>
<stop offset="0.619" stop-color="#27B70D"/>
<stop offset="1" stop-color="#156307"/>
</linearGradient>
<linearGradient id="paint1_linear_2_2" x1="990" y1="0" x2="990" y2="1080" gradientUnits="userSpaceOnUse">
<stop stop-color="#2BC90E"/>
<stop offset="0.47" stop-color="#27B70D"/>
<stop offset="1" stop-color="#156307"/>
</linearGradient>
<linearGradient id="paint2_linear_2_2" x1="990" y1="0" x2="990" y2="1080" gradientUnits="userSpaceOnUse">
<stop stop-color="#2BC90E"/>
<stop offset="0.47" stop-color="#27B70D"/>
<stop offset="1" stop-color="#156307"/>
</linearGradient>
</defs>
</svg>
